<?xml version="1.0" standalone="no"?>
<!DOCTYPE svg PUBLIC "-//W3C//DTD SVG 20010904//EN"
 "http://www.w3.org/TR/2001/REC-SVG-20010904/DTD/svg10.dtd">
<svg version="1.0" xmlns="http://www.w3.org/2000/svg"
 width="327.000000pt" height="327.000000pt" viewBox="0 0 327.000000 327.000000"
 preserveAspectRatio="xMidYMid meet">
<metadata>
Created by potrace 1.14, written by Peter Selinger 2001-2017
</metadata>
<g transform="translate(0.000000,327.000000) scale(0.100000,-0.100000)"
fill="#000000" stroke="none">
<path d="M2419 2285 c-1 -5 -3 -19 -4 -30 -8 -61 -17 -111 -23 -120 -4 -5 -7
-16 -8 -22 -4 -23 -29 -73 -36 -73 -5 0 -8 -6 -8 -14 0 -7 -24 -31 -52 -53
-70 -52 -138 -72 -294 -87 -17 -1 -36 -6 -42 -10 -6 -3 -13 -2 -17 3 -3 6 -16
7 -28 3 -12 -4 -57 -7 -99 -6 -59 1 -78 -2 -78 -13 0 -7 7 -13 15 -13 9 0 27
-7 40 -16 14 -9 25 -13 25 -9 0 4 7 2 15 -5 8 -7 15 -9 15 -6 0 4 9 2 20 -4
56 -30 289 -33 365 -4 98 36 169 93 205 164 16 32 38 140 33 161 -1 3 -5 28
-9 54 -6 47 -32 120 -35 100z"/>
<path d="M3026 1907 c-27 -47 -57 -91 -117 -169 -43 -56 -141 -149 -200 -189
-67 -46 -183 -102 -214 -104 -11 -1 -30 -7 -42 -14 -25 -13 -94 -29 -158 -37
-22 -2 -51 -6 -65 -8 -14 -2 -38 -4 -55 -5 -26 -1 -22 -4 28 -22 31 -10 83
-21 115 -24 31 -2 57 -5 57 -5 0 -1 10 -3 23 -4 12 -2 22 0 22 3 0 3 19 5 42
5 24 -1 48 2 53 5 6 4 17 7 25 6 8 -1 23 3 33 8 10 4 27 10 38 12 32 6 131 56
174 88 58 43 143 135 173 187 14 25 30 48 35 51 5 3 8 8 7 10 -1 2 4 18 11 34
14 35 13 33 33 105 19 70 26 120 18 120 -4 0 -20 -24 -36 -53z"/>
<path d="M2484 1795 c-47 -47 -78 -67 -140 -92 -43 -17 -101 -36 -128 -41 -66
-14 -329 -11 -338 2 -5 7 -8 6 -8 -2 0 -7 -4 -11 -8 -8 -5 3 -20 7 -35 10 -30
7 -59 13 -97 21 -14 4 -36 8 -50 11 -14 3 -32 6 -40 8 -8 1 -28 6 -45 9 -105
24 -167 31 -305 31 -69 0 -152 -4 -185 -8 -82 -10 -229 -46 -236 -58 -3 -5
-10 -9 -15 -8 -15 2 -124 -44 -124 -52 0 -5 -6 -8 -14 -8 -8 0 -24 -9 -37 -19
-22 -18 -22 -19 -4 -16 11 2 20 4 20 5 0 1 20 3 45 5 25 2 70 7 100 10 85 10
405 6 405 -5 0 -2 71 -9 113 -12 17 -1 32 -4 32 -8 0 -4 10 -6 23 -6 12 1 27
0 32 -3 6 -3 19 -6 30 -7 11 -1 28 -5 38 -9 10 -4 21 -5 24 -1 3 3 12 1 20 -6
7 -6 16 -8 20 -5 3 4 11 3 17 -2 11 -9 39 -16 163 -36 13 -2 27 -6 32 -9 5 -4
13 -2 16 4 4 7 11 7 18 2 10 -8 232 -10 232 -2 0 1 11 3 25 4 14 2 43 6 65 11
22 5 43 9 47 9 3 1 10 4 14 9 4 4 13 7 21 7 20 0 143 62 143 72 0 4 6 8 13 8
11 0 69 57 110 109 19 24 60 120 55 130 -2 3 -30 -21 -64 -54z"/>
<path d="M3185 1448 c-20 -12 -34 -22 -60 -46 -8 -7 -15 -11 -15 -7 0 4 -7 -1
-16 -9 -8 -9 -21 -16 -29 -16 -7 0 -15 -4 -17 -8 -4 -11 -137 -75 -155 -75 -7
0 -13 -4 -13 -8 0 -5 -16 -11 -35 -15 -19 -3 -35 -9 -35 -13 0 -4 -6 -8 -12
-9 -26 -3 -64 -10 -113 -23 -27 -6 -61 -12 -75 -13 -14 -1 -29 -4 -35 -7 -13
-8 -258 -4 -315 5 -25 4 -52 8 -60 9 -8 2 -21 6 -27 10 -7 5 -13 6 -13 4 0 -6
-107 22 -215 56 -44 14 -143 44 -220 67 -77 23 -148 46 -157 51 -12 6 -18 6
-18 -2 0 -8 -4 -8 -14 0 -8 6 -18 11 -22 10 -5 -1 -25 1 -44 4 -19 4 -46 9
-60 11 -14 3 -25 5 -25 6 0 9 -302 13 -375 6 -34 -3 -91 -12 -155 -22 -16 -3
-48 -10 -70 -15 -22 -6 -47 -11 -55 -11 -8 0 -21 -5 -27 -11 -7 -5 -13 -7 -13
-3 0 3 -15 0 -34 -8 -19 -8 -37 -12 -40 -8 -3 3 -6 0 -6 -7 0 -7 -4 -10 -8 -7
-5 3 -21 -2 -36 -10 -16 -7 -33 -14 -40 -14 -23 0 -217 -100 -297 -153 -88
-58 -188 -144 -154 -132 11 4 47 18 80 30 33 12 68 25 78 29 9 3 25 9 35 13 9
3 21 5 26 4 4 -1 14 4 22 10 8 6 14 9 14 6 0 -3 15 -1 33 4 62 19 242 60 282
64 22 3 56 7 75 10 148 22 494 22 530 0 5 -3 12 -1 15 5 4 7 11 7 18 2 7 -5
19 -10 27 -10 36 -3 108 -17 130 -25 8 -3 33 -9 54 -12 22 -3 45 -10 53 -16 7
-6 13 -9 13 -6 0 3 15 1 33 -5 30 -9 82 -24 117 -33 8 -2 16 -4 18 -5 1 -2 7
-4 12 -5 6 -1 11 -3 13 -5 1 -1 9 -3 17 -5 8 -3 22 -6 30 -8 8 -2 22 -6 30
-10 25 -9 141 -39 169 -43 14 -2 46 -9 71 -14 135 -30 414 -30 469 0 9 4 19 8
24 9 4 1 8 1 10 2 1 0 13 2 27 5 44 7 180 57 180 66 0 4 3 7 8 7 13 -3 72 25
72 34 0 4 4 6 9 3 5 -3 14 1 21 9 7 8 17 15 22 15 5 0 21 11 36 25 15 14 30
25 35 25 4 0 19 11 32 24 13 13 32 30 42 38 33 24 165 189 151 188 -2 0 -12
-6 -23 -12z"/>
</g>
</svg>
